<?xml version="1.0" encoding="UTF-8"?>
<svg id="Camada_1" data-name="Camada 1" xmlns="http://www.w3.org/2000/svg" viewBox="0 0 9.1 10.1">
  <defs>
    <style>
      .cls-1 {
        fill: #fff;
        stroke: #1d1d1b;
        stroke-miterlimit: 10;
        stroke-width: .1px;
      }
    </style>
  </defs>
  <path class="cls-1" d="m2.05,2.05V.55c0-.28.22-.5.5-.5h6c.28,0,.5.22.5.5v7c0,.28-.22.5-.5.5h-1.5v1.5c0,.28-.22.5-.5.5H.55c-.28,0-.5-.22-.5-.5V2.55c0-.28.23-.5.5-.5h1.5Zm-1,1v6s5,0,5,0V3.05H1.05Zm2-1h4v5h1V1.05H3.05v1Z"/>
</svg>