<?xml version="1.0" encoding="UTF-8"?>
<svg id="Camada_2" data-name="Camada 2" xmlns="http://www.w3.org/2000/svg" viewBox="0 0 29.85 29.98">
  <defs>
    <style>
      .cls-1 {
        fill: #1e2418;
        stroke-width: 0px;
      }
    </style>
  </defs>
  <g id="Camada_1-2" data-name="Camada 1">
    <g>
      <path class="cls-1" d="m7.38,10.65l8.48-.02c.15,0,3.61-4.66,3.13-4.66l-13.28.03c-5.3.01-6.47,2.91-5.27,7.41l1.03,3.84c1.21,4.51,3.93,7.39,9.23,7.38h.44s-1.29-4.84-1.29-4.84c-1.98,0-2.88-.79-3.47-3.02l-.84-3.13c-.61-2.28-.09-3,1.86-3.01Zm8.18,9.14l1.29,4.84h5.7s-4.13-4.84-4.13-4.84h-2.87Z"/>
      <g>
        <g>
          <path class="cls-1" d="m21.18,15.47l-7.18.02-1.19-4.47h-4.86s5.07,18.97,5.07,18.97h4.89s-.99-3.7-.99-3.7h.19s2.47,3.68,2.47,3.68h5.48c4.4-.02,5.41-2.27,4.47-5.77l-.8-2.99c-.93-3.48-3.15-5.74-7.55-5.73Zm3.32,8.1c.44,1.63.03,2.13-1.5,2.14h-6.26s-1.72-6.42-1.72-6.42h6.26c1.53-.02,2.22.53,2.67,2.25l.55,2.04Z"/>
          <polygon class="cls-1" points="15.43 25.95 18.72 25.95 19.74 29.77 16.45 29.78 15.43 25.95"/>
        </g>
        <polygon class="cls-1" points="9.86 0 11.36 5.58 6.5 5.59 6.04 3.89 9.86 0"/>
      </g>
    </g>
    <polygon class="cls-1" points="9.86 0 3.9 .01 4.99 4.07 10.95 4.06 9.86 0"/>
    <polygon class="cls-1" points="17.65 29.66 19.58 29.66 19.66 29.97 17.74 29.97 17.65 29.66"/>
  </g>
</svg>